<svg width="400" height="400" xmlns="http://www.w3.org/2000/svg">

 <g>
  <title>background</title>
  <rect fill="none" id="canvas_background" height="402" width="582" y="-1" x="-1"/>
 </g>
 <g>
  <title>Layer 1</title>
  <path id="svg_1" fill-rule="evenodd" fill="#d55050" d="m80.469,59.25c1.034,22.498 3.173,37.464 6.058,42.387c4.283,7.308 12.116,12.405 22.076,14.365c5.106,1.004 7.078,0.939 12.335,-0.408c9.656,-2.473 14.396,-7.244 17.465,-17.58c2.088,-7.029 2.015,-11.493 -0.308,-18.956c-3.374,-10.842 -7.581,-14.605 -24.33,-21.763c-7.667,-3.276 -32.17,-12.295 -33.406,-12.295c-0.3,0 -0.25,6.413 0.11,14.25m221.419,-8.303c-16.99,6.412 -30.096,12.647 -33.643,16.006c-4.233,4.007 -7.524,12.038 -8.012,19.547c-0.552,8.503 0.762,13.771 5.031,20.157c4.382,6.558 10.666,9.678 19.634,9.751c8.176,0.065 13.551,-1.489 19.617,-5.673c7.314,-5.046 10.34,-10.003 12.087,-19.807c1.865,-10.463 3.332,-45.942 1.898,-45.901c-0.55,0.016 -8.025,2.68 -16.612,5.92m-160.181,7.303c3.673,5.088 6.776,9.396 6.893,9.574c0.118,0.178 4.582,-2.854 9.921,-6.738c5.642,-4.105 9.136,-7.252 8.343,-7.518c-1.701,-0.569 -28.241,-4.568 -30.316,-4.568c-0.989,0 0.814,3.234 5.159,9.25m103.543,-6.906c-7.287,1.141 -13.242,2.318 -13.232,2.616c0.025,0.753 17.295,13.168 18.305,13.158c0.813,-0.007 13.677,-16.546 13.677,-17.583c0,-0.853 -4.572,-0.412 -18.75,1.809m-55.538,7.797c-12.235,2.345 -23.633,10.62 -27.75,20.145c-2.079,4.809 -4.285,17.755 -3.014,17.682c0.304,-0.017 1.426,-0.692 2.493,-1.5c1.068,-0.807 4.039,-1.468 6.602,-1.468c6.126,0 10.764,3.106 13.813,9.251l2.356,4.749l18.788,0l18.788,0l2.356,-4.749c2.904,-5.853 7.732,-9.251 13.143,-9.251l3.992,0l-0.615,-5.189c-2.462,-20.789 -25.945,-34.463 -50.952,-29.67m-123.138,41.046c-0.756,2.415 -4.779,29.941 -4.424,30.274c0.275,0.257 17.158,-11.436 18.616,-12.894c0.425,-0.425 -11.577,-17.332 -12.872,-18.132c-0.499,-0.309 -1.093,0.029 -1.32,0.752m258.676,7.721c-3.437,4.882 -6.25,9.097 -6.25,9.367c0,0.753 17.023,12.725 18.095,12.725c0.519,0 0.73,-1.012 0.468,-2.25c-0.261,-1.237 -1.194,-6.975 -2.073,-12.75c-2.157,-14.166 -2.538,-16.003 -3.319,-15.983c-0.369,0.009 -3.483,4.01 -6.921,8.891m-161.717,-3.351c-2.763,2.561 -2.971,4.588 -0.996,9.693c0.605,1.564 -0.064,1.75 -6.295,1.75c-8.242,0 -12.242,2.26 -12.242,6.918c0,5.1 2.973,6.524 14.792,7.082l10.592,0.5l2.202,5.485c2.56,6.381 6.28,8.778 10.389,6.696c3.766,-1.91 4.606,-4.053 3.382,-8.638l-1.079,-4.043l18.722,0l18.722,0l-1.079,4.043c-1.246,4.669 -0.379,6.759 3.618,8.723c4.134,2.03 7.156,-0.025 10.134,-6.892l2.548,-5.874l10.074,0c9.362,0 10.247,-0.173 12.528,-2.455c1.35,-1.35 2.455,-3.395 2.455,-4.545c0,-1.15 -1.105,-3.195 -2.455,-4.545c-2.149,-2.15 -3.345,-2.455 -9.616,-2.455c-6.967,0 -7.143,-0.061 -6.465,-2.25c1.804,-5.821 1.731,-6.646 -0.813,-9.19c-4.746,-4.746 -9.939,-2.222 -13.012,6.325l-1.84,5.115l-24.799,0l-24.799,0l-1.84,-5.115c-1.887,-5.248 -5.305,-8.885 -8.35,-8.885c-0.945,0 -2.961,1.151 -4.478,2.557m-65.401,23.51c-14.634,2.912 -27.594,17.002 -31.229,33.951c-1.83,8.531 -0.692,21.438 2.48,28.144c3.017,6.377 9.736,13.081 15.927,15.892c5.945,2.699 6.92,2.477 10.577,-2.403c5.562,-7.423 18.056,-16.621 32.113,-23.642c3.575,-1.785 6.663,-3.394 6.863,-3.574c0.2,-0.18 -2.112,-5.189 -5.137,-11.131c-6.428,-12.627 -10.374,-23.17 -11.308,-30.211c-0.6,-4.522 -0.976,-5.114 -3.792,-5.975c-5.075,-1.552 -11.818,-1.981 -16.494,-1.051m193.868,-0.428c-1.375,0.212 -4.137,0.834 -6.137,1.38c-3.336,0.911 -3.694,1.368 -4.313,5.496c-1.09,7.27 -5.181,18.166 -11.488,30.598l-5.891,11.613l7.103,3.333c11.289,5.296 23.707,14.014 30.449,21.376c7.17,7.83 8.004,7.931 16.94,2.055c9.071,-5.965 14.003,-14.976 15.023,-27.45c1.895,-23.17 -14.611,-46.159 -34.686,-48.307c-2.475,-0.265 -5.625,-0.307 -7,-0.094m-88,7.144c-0.825,0.263 -2.287,1.164 -3.25,2.002c-1.587,1.383 -1.75,4.071 -1.75,28.797l0,27.273l2.635,2.072c2.522,1.985 3.824,2.073 30.5,2.073c26.532,0 27.961,-0.096 29.865,-2c2.802,-2.802 2.683,-8.408 -0.223,-10.443c-1.857,-1.301 -6.05,-1.557 -25.5,-1.557l-23.277,0l0,-5.5l0,-5.5l21.277,0c23.965,0 25.736,-0.435 25.708,-6.307c-0.034,-7.007 -2.446,-7.693 -27.05,-7.693l-19.935,0l0,-9.066c0,-4.986 -0.441,-9.889 -0.979,-10.895c-1.112,-2.078 -5.775,-3.971 -8.021,-3.256m-35.879,19.54c-35.417,34.194 -33.121,31.713 -33.121,35.789c0,6.523 1.34,6.888 25.268,6.888c27.842,0 25.732,2.075 25.732,-25.309c0,-20.267 -0.016,-20.416 -2.452,-23.045c-3.903,-4.211 -5.975,-3.448 -15.427,5.677m3.879,22.177l0,6.5l-6.721,0l-6.721,0l6.442,-6.5c3.543,-3.575 6.568,-6.5 6.721,-6.5c0.154,0 0.279,2.925 0.279,6.5m-123.233,19.687c-4.093,7.872 -7.337,14.453 -7.209,14.625c0.329,0.442 20.785,-5.905 21.693,-6.731c0.64,-0.582 -5.457,-20.62 -6.632,-21.796c-0.227,-0.226 -3.76,6.03 -7.852,13.902m293.978,-13.52c-1.768,3.094 -6.804,20.659 -6.107,21.297c1.318,1.203 20.416,7.315 21.009,6.723c0.286,-0.287 -2.078,-5.621 -5.254,-11.854c-7.198,-14.126 -9.045,-17.221 -9.648,-16.166m-147.481,17.764l-3.053,2.569l-22.105,0c-26.931,0 -26.106,-0.378 -26.106,11.961c0,6.902 0.291,8.232 2.189,10c4.58,4.267 11.811,0.689 11.811,-5.846l0,-2.615l18,0c9.9,0 18,0.301 18,0.668c0,3.384 -1.305,3.832 -11.152,3.832c-9.219,0 -10.117,0.178 -12.393,2.455c-3.115,3.114 -3.115,5.976 0,9.09c2.027,2.028 3.439,2.455 8.107,2.455c4.996,0 5.567,0.203 4.916,1.75c-0.404,0.963 -0.955,2.763 -1.223,4c-0.488,2.247 -0.516,2.25 -21.649,2.25c-24.754,0 -25.921,0.336 -25.409,7.32c0.238,3.242 0.842,4.405 2.803,5.392c1.898,0.955 13.4,1.262 47.75,1.273l45.25,0.015l0,12c0,6.6 0.005,12.338 0.011,12.75c0.007,0.413 -4.535,0.975 -10.092,1.25c-9.096,0.45 -10.293,0.735 -12.011,2.861c-2.563,3.172 -2.402,5.736 0.547,8.684c2.365,2.366 2.947,2.455 16.065,2.455c13.1,0 16.906,-0.692 18.715,-3.4c0.404,-0.605 0.741,-9.049 0.75,-18.764l0.015,-17.664l11.583,-0.336c12.931,-0.375 14.417,-1.145 14.417,-7.47c0,-6.042 -1.45,-6.366 -28.522,-6.366l-24.076,0l-1.201,-3.321c-0.661,-1.827 -1.201,-3.627 -1.201,-4c0,-0.373 3.845,-0.679 8.545,-0.679c7.74,0 8.777,-0.231 11,-2.455c1.35,-1.35 2.455,-3.395 2.455,-4.545c0,-1.15 -1.105,-3.195 -2.455,-4.545c-2.353,-2.354 -2.989,-2.455 -15.393,-2.455c-11.399,0 -13.018,-0.208 -13.61,-1.75c-0.369,-0.962 -0.755,-1.877 -0.857,-2.033c-0.102,-0.155 7.24,-0.293 16.315,-0.306c28.142,-0.039 26,-0.241 26,2.454c0,1.301 0.933,3.551 2.073,5c2.629,3.343 6.785,3.48 9.753,0.321c1.843,-1.962 2.174,-3.486 2.174,-10c0,-12.177 1.244,-11.686 -29.59,-11.686c-24.171,0 -25.681,-0.108 -27.25,-1.957c-2.802,-3.304 -6.43,-3.528 -9.896,-0.612m-82.158,13.47c-2.408,2.249 -3.106,3.745 -3.106,6.656c0,5.276 3.894,10.162 8.769,11.004c2.409,0.416 4.655,1.728 6.338,3.704c4.286,5.031 8.178,1.442 4.354,-4.017c-1.385,-1.978 -1.385,-2.494 0,-5.173c1.933,-3.738 1.932,-5.445 -0.009,-9.535c-2.934,-6.183 -11.135,-7.507 -16.346,-2.639m161.817,0.022c-3.502,3.502 -4.134,7.993 -1.787,12.691c0.805,1.611 0.655,2.889 -0.63,5.374c-1.452,2.809 -1.49,3.456 -0.274,4.673c1.793,1.792 4.194,0.894 5.547,-2.074c0.732,-1.608 2.208,-2.49 4.885,-2.921c5.27,-0.848 8.078,-3.072 9.254,-7.331c2.862,-10.366 -9.479,-17.927 -16.995,-10.412m-214.923,5.206c-4.558,1.356 -17.538,14.621 -29.75,30.401c-5.087,6.574 -9.246,12.182 -9.241,12.462c0.012,0.657 11.669,4.187 26.1,7.904c14.281,3.678 25.701,5.306 29.529,4.208c13.661,-3.918 23.139,-15.37 24.088,-29.104c0.551,-7.982 -1.151,-12.473 -6.807,-17.962c-6.471,-6.281 -12.02,-8.493 -21.919,-8.739c-4.675,-0.116 -10.075,0.257 -12,0.83m256.424,0.928c-6.318,2.431 -12.877,7.951 -15.458,13.011c-2.174,4.26 -2.623,13.025 -0.973,18.967c2.496,8.982 10.574,17.262 20.738,21.255c4.02,1.579 5.513,1.662 12.175,0.68c9.521,-1.404 43.804,-10.047 45.942,-11.582c0.576,-0.414 -11.743,-16.227 -20.985,-26.936c-8.592,-9.955 -13.74,-14.356 -19.178,-16.396c-4.602,-1.726 -16.572,-1.188 -22.261,1.001m-114.585,19.49c1.572,3.449 1.57,3.453 -1.839,3.453c-1.65,0 -3,-0.204 -3,-0.453c0,-1.125 2.391,-5.547 3,-5.547c0.373,0 1.201,1.146 1.839,2.547m-27.147,21.883c-5.423,1.455 -11.191,6.347 -13.311,11.288c-0.76,1.77 -1.374,5.82 -1.365,9c0.021,7.226 2.805,12.507 8.823,16.737c3.765,2.646 5.181,3.038 10.992,3.041c12.214,0.007 20.137,-6.899 20.959,-18.273c1.089,-15.049 -11.636,-25.675 -26.098,-21.793m-69.692,4.549c-1.148,0.726 -1.5,3.015 -1.5,9.756c0,7.97 0.319,9.454 3.351,15.614c12.093,24.564 42.486,34.458 62.531,20.354l2.882,-2.027l-4.182,-2.134c-9.057,-4.621 -15.616,-13.814 -16.763,-23.494c-0.558,-4.717 1.729,-15.16 3.898,-17.798c0.817,-0.994 -4.064,-1.247 -23.845,-1.235c-13.925,0.009 -25.532,0.433 -26.372,0.964m148.5,13.271c0,12.574 -0.242,14.661 -2.054,17.747c-2.654,4.517 -7.877,8.003 -11.992,8.003c-1.787,0 -5.1,1.051 -7.362,2.336c-3.893,2.211 -4.017,2.422 -2.325,3.953c0.983,0.89 4.368,2.799 7.522,4.243c10.474,4.795 24.915,3.227 37.342,-4.056c13.834,-8.107 23.859,-26.055 21.889,-39.188c-1.173,-7.825 0.477,-7.288 -22.377,-7.288l-20.643,0l0,14.25m-68.931,-2.944c5.046,4.34 2.435,11.694 -4.151,11.694c-6.62,0 -9.378,-7.923 -4.265,-12.25c2.791,-2.361 5.21,-2.202 8.416,0.556m-105.764,11.067c-5.333,1.751 -9.993,3.482 -10.357,3.846c-0.364,0.363 5.735,3.865 13.552,7.781c7.817,3.916 14.385,6.949 14.594,6.739c0.586,-0.586 -6.681,-21.752 -7.433,-21.645c-0.363,0.052 -5.024,1.527 -10.356,3.279m230.931,-2.691c-1.259,2.207 -6.877,20.511 -6.432,20.956c0.438,0.437 23.622,-10.922 27.56,-13.503c0.952,-0.624 -1.619,-1.882 -8.5,-4.161c-5.425,-1.797 -10.381,-3.457 -11.013,-3.689c-0.632,-0.232 -1.359,-0.053 -1.615,0.397m-120.514,23.365c-10.882,5.438 -17.522,15.961 -17.651,27.974c-0.061,5.638 0.454,7.621 3.675,14.149c4.092,8.294 23.306,37.83 24.609,37.83c1.333,0 19.962,-28.825 24.342,-37.664c3.279,-6.618 4.045,-9.207 3.951,-13.356c-0.32,-14.199 -8.456,-26.117 -20.846,-30.536c-6.209,-2.215 -11.352,-1.759 -18.08,1.603m-43.722,32.953c6.583,6.6 12.088,12 12.234,12c0.146,0 0.266,-5.4 0.266,-12l0,-12l-12.234,0l-12.235,0l11.969,12m96.5,0.234l0,12.233l11.5,-11.467c6.325,-6.307 11.5,-11.812 11.5,-12.234c0,-0.421 -5.175,-0.766 -11.5,-0.766l-11.5,0l0,12.234"/>
 </g>
</svg>